<svg xmlns="http://www.w3.org/2000/svg" viewBox="0 0 1200 630" fill="none">
  <defs>
    <linearGradient id="bg" x1="0" y1="0" x2="1" y2="1">
      <stop offset="0%" stop-color="#071520"/>
      <stop offset="100%" stop-color="#0D3347"/>
    </linearGradient>
  </defs>
  <rect width="1200" height="630" fill="url(#bg)"/>
  <!-- Structural pattern background -->
  <line x1="0" y1="630" x2="600" y2="0" stroke="#006E7E" stroke-width="1.5" opacity="0.2"/>
  <line x1="200" y1="630" x2="800" y2="0" stroke="#006E7E" stroke-width="1.5" opacity="0.2"/>
  <line x1="400" y1="630" x2="1000" y2="0" stroke="#006E7E" stroke-width="1.5" opacity="0.2"/>
  <line x1="600" y1="630" x2="1200" y2="0" stroke="#006E7E" stroke-width="1.5" opacity="0.2"/>
  <!-- Logo box -->
  <rect x="80" y="220" width="130" height="130" rx="12" fill="#006E7E"/>
  <path d="M 100 310 L 100 250 L 114 250 L 148 290 L 148 250 L 162 250 L 162 310 L 148 310 L 114 270 L 114 310 Z" fill="white"/>
  <path d="M 170 250 L 212 250 L 212 262 L 198 262 L 198 310 L 184 310 L 184 262 L 170 262 Z" fill="white"/>
  <!-- Company name -->
  <text x="232" y="270" font-family="Arial, sans-serif" font-weight="700" font-size="38" fill="white">NOVO TEMPO</text>
  <text x="232" y="318" font-family="Arial, sans-serif" font-weight="300" font-size="28" fill="#80C0CC" letter-spacing="6">SOLUÇÕES EM ENGENHARIA</text>
  <!-- Divider -->
  <rect x="80" y="385" width="1040" height="3" fill="#006E7E" opacity="0.5"/>
  <!-- Tagline -->
  <text x="80" y="430" font-family="Arial, sans-serif" font-weight="400" font-size="22" fill="#A0C8D8">Mais de 35 anos de excelência em engenharia estrutural</text>
  <!-- Bullet points -->
  <circle cx="88" cy="480" r="4" fill="#006E7E"/>
  <text x="102" y="487" font-family="Arial" font-size="18" fill="#80A0B0">Projetos Estruturais</text>
  <circle cx="348" cy="480" r="4" fill="#006E7E"/>
  <text x="362" y="487" font-family="Arial" font-size="18" fill="#80A0B0">Consultoria BIM</text>
  <circle cx="568" cy="480" r="4" fill="#006E7E"/>
  <text x="582" y="487" font-family="Arial" font-size="18" fill="#80A0B0">Cálculo Estrutural</text>
  <circle cx="808" cy="480" r="4" fill="#006E7E"/>
  <text x="822" y="487" font-family="Arial" font-size="18" fill="#80A0B0">+500 Projetos</text>
  <!-- URL -->
  <text x="1120" y="600" font-family="monospace" font-size="16" fill="#006E7E" text-anchor="end">novotempoengenharia.com.br</text>
</svg>
