<svg xmlns="http://www.w3.org/2000/svg" viewBox="0 0 800 500" fill="none">
  <rect width="800" height="500" fill="#0A1E2E"/>
  <rect y="420" width="800" height="80" fill="#061420"/>
  <!-- Tower body -->
  <rect x="310" y="80" width="180" height="340" fill="#1A3040"/>
  <!-- Floors -->
  <rect x="310" y="80" width="180" height="8" fill="#006E7E"/>
  <rect x="310" y="140" width="180" height="6" fill="#006E7E" opacity="0.7"/>
  <rect x="310" y="200" width="180" height="6" fill="#006E7E" opacity="0.7"/>
  <rect x="310" y="260" width="180" height="6" fill="#006E7E" opacity="0.7"/>
  <rect x="310" y="320" width="180" height="6" fill="#006E7E" opacity="0.7"/>
  <rect x="310" y="380" width="180" height="6" fill="#006E7E" opacity="0.7"/>
  <!-- Windows grid -->
  <rect x="325" y="92" width="30" height="40" fill="#0D3347" opacity="0.9"/>
  <rect x="370" y="92" width="30" height="40" fill="#006E7E" opacity="0.4"/>
  <rect x="415" y="92" width="30" height="40" fill="#0D3347" opacity="0.9"/>
  <rect x="455" y="92" width="30" height="40" fill="#0D3347" opacity="0.9"/>
  <rect x="325" y="148" width="30" height="40" fill="#0D3347" opacity="0.9"/>
  <rect x="370" y="148" width="30" height="40" fill="#0D3347" opacity="0.9"/>
  <rect x="415" y="148" width="30" height="40" fill="#006E7E" opacity="0.4"/>
  <rect x="455" y="148" width="30" height="40" fill="#0D3347" opacity="0.9"/>
  <!-- Core walls -->
  <rect x="310" y="80" width="12" height="340" fill="#243848"/>
  <rect x="478" y="80" width="12" height="340" fill="#243848"/>
  <!-- Top penthouse -->
  <rect x="330" y="60" width="140" height="24" fill="#1E3A4A"/>
  <rect x="330" y="56" width="140" height="6" fill="#006E7E"/>
  <!-- Base podium -->
  <rect x="260" y="415" width="280" height="10" fill="#243848"/>
  <rect x="240" y="420" width="320" height="8" fill="#1E3A4A"/>
  <!-- Label -->
  <rect x="0" y="450" width="800" height="50" fill="#006E7E" opacity="0.9"/>
  <text x="400" y="480" font-family="Arial" font-size="15" font-weight="700" fill="white" text-anchor="middle">TORRE DE CONCRETO</text>
</svg>
